<?xml version="1.0" encoding="utf-8"?>
<!-- Generator: Adobe Illustrator 25.3.1, SVG Export Plug-In . SVG Version: 6.00 Build 0)  -->
<svg version="1.1" id="图层_1" xmlns="http://www.w3.org/2000/svg" xmlns:xlink="http://www.w3.org/1999/xlink" x="0px" y="0px"
	 viewBox="0 0 328.5 303.3" style="enable-background:new 0 0 328.5 303.3;" xml:space="preserve">
<style type="text/css">
	.st0{fill:#4679BD;stroke:#4679BD;stroke-miterlimit:10;}
	.st1{fill:#4679BD;}
	.st2{font-family:'ArialMT';}
	.st3{font-size:72px;}
</style>
<g>
	<path class="st0" d="M140.3,61.3H90.1c-7.2,0-13.1-5.8-13.1-13.1c0-7.2,5.8-13.1,13.1-13.1h50.2c7.2,0,13.1,5.8,13.1,13.1
		C153.4,55.4,147.5,61.3,140.3,61.3 M210.9,131.7H90.1c-7.2,0-13.1-5.8-13.1-13.1c0-7.2,5.8-13.1,13.1-13.1h120.8
		c7.2,0,13.1,5.9,13.1,13.1C223.9,125.9,218.1,131.7,210.9,131.7 M295.4,200.6H90.1c-7.2,0-13.1-5.8-13.1-13.1
		c0-7.2,5.8-13.1,13.1-13.1h205.3c7.2,0,13.1,5.8,13.1,13.1C308.5,194.7,302.6,200.6,295.4,200.6 M295.4,131.7h-49.7
		c-7.2,0-13.1-5.8-13.1-13.1c0-7.2,5.8-13.1,13.1-13.1h49.7c7.2,0,13.1,5.8,13.1,13.1C308.5,125.9,302.6,131.7,295.4,131.7
		 M295.4,62.4H175c-7.2,0-13.1-5.8-13.1-13.1c0-7.2,5.8-13.1,13.1-13.1h120.4c7.2,0,13.1,5.8,13.1,13.1
		C308.5,56.5,302.6,62.4,295.4,62.4 M140.3,270.2H90.1c-7.2,0-13.1-5.8-13.1-13.1s5.8-13.1,13.1-13.1h50.2c7.2,0,13.1,5.8,13.1,13.1
		S147.5,270.2,140.3,270.2 M295.4,271.3H175c-7.2,0-13.1-5.8-13.1-13.1c0-7.2,5.8-13.1,13.1-13.1h120.4c7.2,0,13.1,5.8,13.1,13.1
		C308.5,265.4,302.6,271.3,295.4,271.3"/>
</g>
<text transform="matrix(1 0 0 1 22.0985 75.761)" class="st1 st2 st3">T</text>
<text transform="matrix(1 0 0 1 19.413 144.4327)" class="st1 st2 st3">A</text>
<text transform="matrix(1 0 0 1 15.4361 215.392)" class="st1 st2 st3">G</text>
<text transform="matrix(1 0 0 1 17.4401 282.5545)" class="st1 st2 st3">C</text>
</svg>
