<?xml version="1.0" encoding="utf-8"?>
<!-- Generator: Adobe Illustrator 25.3.1, SVG Export Plug-In . SVG Version: 6.00 Build 0)  -->
<svg version="1.1" id="图层_1" xmlns="http://www.w3.org/2000/svg" xmlns:xlink="http://www.w3.org/1999/xlink" x="0px" y="0px"
	 viewBox="0 0 299.1 295.7" style="enable-background:new 0 0 299.1 295.7;" xml:space="preserve">
<style type="text/css">
	.st0{fill:#4285F4;}
	.st1{fill:#EE5162;}
	.st2{fill:#FFFFFF;}
</style>
<g transform="translate(45.02412451361867 45.024124513618645) scale(1.83 1.83)">
	<path class="st0" d="M88.8-10.6c1.1-1,2.7-1,3.7,0L111,7.9c1,1.1,1,2.7,0,3.7c-1.1,1-2.7,1-3.7,0L88.9-6.8
		c-0.5-0.5-0.8-1.1-0.8-1.8C88.1-9.3,88.3-10,88.8-10.6z"/>
	<path class="st0" d="M92.3,8.4c1.1-1,2.7-1,3.7,0l14.5,14.4c1,1.1,1,2.7,0,3.7c-1.1,1-2.7,1-3.7,0L92.4,12.1
		c-0.5-0.5-0.8-1.1-0.8-1.8S91.8,8.9,92.3,8.4z"/>
	<path class="st0" d="M49.1,48.4c1.1-1,2.7-1,3.7,0l18.5,18.4c1,1.1,1,2.7,0,3.7c-1.1,1-2.7,1-3.7,0L49.2,52
		c-0.5-0.5-0.8-1.1-0.8-1.8C48.4,49.6,48.7,48.9,49.1,48.4z"/>
	<path class="st0" d="M33.5,48.1c1.1-1,2.7-1,3.7,0l15.2,15.2c1,1.1,1,2.7,0,3.7c-1.1,1-2.7,1-3.7,0L33.6,51.8
		c-0.5-0.5-0.8-1.1-0.8-1.8S33,48.6,33.5,48.1z"/>
	<path class="st0" d="M49.7,33.5c1.1-1,2.7-1,3.7,0l14.4,14.4c1,1.1,1.1,2.7,0,3.7s-2.7,1-3.7,0L49.7,37.1c-0.5-0.5-0.8-1.1-0.8-1.8
		C48.9,34.7,49.2,34,49.7,33.5z"/>
	<path class="st0" d="M-10.6,88.9c1.1-1,2.7-1,3.7,0l18.5,18.4c1,1.1,1,2.7,0,3.7c-1.1,1-2.7,1-3.7,0l-18.4-18.4
		c-0.5-0.5-0.8-1.1-0.8-1.8S-11.1,89.4-10.6,88.9z"/>
	<path class="st0" d="M8.4,92.4c1.1-1,2.7-1,3.7,0l15,15c1,1.1,1,2.7,0,3.7c-1.1,1-2.7,1-3.7,0l-15-15c-0.5-0.5-0.8-1.1-0.8-1.8
		S7.8,92.9,8.4,92.4z"/>
	<path class="st0" d="M17.5,117c8.2-8.2,7-18.4,4.6-31c-0.3-1.4,0.6-2.7,2-3s2.7,0.6,3,2c2.5,13.1,3.9,25.7-6,35.6
		c-0.8,0.8-1.2,1.7-1.2,2.8l0,0c0,1.1,0.5,2.1,1.2,2.8c0.8,0.8,1.7,1.2,2.8,1.2s2.1-0.5,2.8-1.2c11.4-11.4,11.1-24.9,9-37.7
		c-0.3-1.4,0.7-2.8,2.1-3c1.4-0.3,2.8,0.7,3,2.1c2.2,13.5,2.6,29.1-10.5,42.2c-1.7,1.8-4,2.7-6.4,2.7s-4.7-1-6.4-2.7s-2.7-4-2.7-6.4
		l0,0C14.8,121,15.8,118.7,17.5,117z"/>
	<path class="st0" d="M29.9,30c8.6-8.6,19.1-12.3,32.9-11.5c1.4,0.1,2.5,1.2,2.4,2.7c-0.1,1.4-1.3,2.5-2.7,2.4
		c-12.2-0.8-21.4,2.4-29,10c-11.4,11.4-11.1,24.9-9,37.7c0.3,1.4-0.7,2.8-2.1,3c-1.4,0.3-2.8-0.7-3-2.1c-0.7-4.2-1.2-8.5-1.2-12.9
		C18.2,49.3,20.8,39.1,29.9,30z"/>
	<path class="st0" d="M39.1,39.3c8-8.1,17.7-8.3,25.2-7.6c1.4,0.1,2.4,1.4,2.3,2.8s-1.4,2.4-2.8,2.3c-9.6-0.9-15.9,0.9-21.1,6.1
		c-8.2,8.2-7,18.4-4.6,31c0.3,1.4-0.6,2.7-2,3s-2.7-0.6-3-2c-1-5.3-1.8-10.5-1.8-15.4C31.3,52.1,33.2,45.2,39.1,39.3z"/>
	<path class="st0" d="M79.5-19.8c3.6-3.6,9.3-3.6,12.9,0s3.6,9.3,0,12.9c-8.2,8.2-7,18.4-4.6,31c0.3,1.4-0.6,2.7-2,3s-2.7-0.6-3-2
		c-2.5-13.1-3.9-25.7,6-35.6c1.5-1.6,1.5-4.1,0-5.6c-1.6-1.5-4.1-1.5-5.6,0c-11.4,11.4-11.1,24.9-9,37.7c0.3,1.5-0.7,2.8-2.1,3
		c-1.4,0.3-2.8-0.7-3-2.1c-0.7-4.2-1.2-8.5-1.2-12.9C67.9-0.4,70.5-10.6,79.5-19.8z"/>
	<path class="st0" d="M85.3,61.7c2.1-8,1.2-16.4,0.2-22.8c-0.3-1.5,0.7-2.8,2.1-3c1.4-0.3,2.8,0.7,3,2.1c1.1,7,2,16.1-0.4,25
		c-0.4,1.4-1.8,2.2-3.2,1.8c-1.1-0.3-1.9-1.4-1.9-2.5C85.1,62.1,85.2,61.8,85.3,61.7z"/>
	<path class="st0" d="M-19.6,79.7C-3.8,63.8,16.1,67.8,32.1,71c14.6,3,26.2,5.3,35.2-3.7c8.2-8.2,7-18.4,4.6-31
		c-0.3-1.4,0.6-2.7,2-3s2.7,0.6,3,2c2.5,13.1,3.9,25.7-6,35.6C60,81.8,45.9,79,31,76c-16.3-3.3-33.2-6.6-47.1,7.3
		c-1.5,1.6-1.5,4.1,0,5.6c1.6,1.5,4.1,1.5,5.6,0c10.9-10.9,25-8.1,39.9-5.1c16.3,3.3,33.1,6.6,46.9-7.4c1.1-1,2.7-1,3.7,0
		c1,1.1,1,2.7,0,3.7C64.2,96,44.3,92,28.3,88.8c-14.6-3-26.2-5.3-35.2,3.7c-3.6,3.6-9.3,3.6-12.9,0c-1.8-1.7-2.7-4.1-2.7-6.4
		C-22.5,83.8-21.6,81.5-19.6,79.7z"/>
	<path class="st0" d="M60.2,20.9c0.1-1.4,1.3-2.5,2.7-2.4c6.4,0.3,12.7,1.6,18.8,2.8c14.7,3,26.3,5.3,35.3-3.7
		c1.7-1.7,4-2.7,6.4-2.7s4.7,1,6.4,2.7c1.8,1.7,2.7,4,2.7,6.4s-1,4.7-2.7,6.4C113.9,46.3,94,42.3,78,39.1c-5-1-9.7-2-14.1-2.4
		c-1.4-0.1-2.4-1.4-2.3-2.8s1.4-2.4,2.8-2.3c4.7,0.5,9.5,1.5,14.7,2.5c16.3,3.3,33.1,6.6,47-7.2c1.5-1.5,1.5-4.1,0-5.6
		c-0.8-0.8-1.7-1.2-2.8-1.2c-1.1,0-2.1,0.5-2.8,1.2c-10.9,10.9-25,8.1-39.9,5.1c-5.9-1.2-12-2.4-18.1-2.8c-1.3-0.1-2.4-1.2-2.4-2.6
		C60.1,21,60.1,20.9,60.2,20.9z"/>
</g>
<g id="XMLID_27_">
	<path id="XMLID_21_" class="st1" d="M212.4,272.7c-10.8,0-19.7-9-19.7-19.9s8.9-19.9,19.7-19.9s19.7,9,19.7,19.9
		C232.3,263.8,223.4,272.7,212.4,272.7z M212.4,240.7c-6.6,0-12,5.5-12,12.1s5.4,12.1,12,12.1s12-5.5,12-12.1
		S219.2,240.7,212.4,240.7z"/>
	<path id="XMLID_17_" class="st1" d="M188.6,99.2c0,0-9.3-4.1-16.1-1c-0.6,3.7,30,108.7,29.6,110.5s-1.7,0.2-1.2,2.1
		c0.6,2,6,18.7,4.6,20.9c-1.4,2.1-8.9,11.5-8.9,11.5l15.9-7.6l18,9.4c0,0-9.5-38.1-10.5-38.5s-15.1-88.2-15.9-93.3
		C203.3,108.2,188.6,99.2,188.6,99.2z"/>
</g>
<ellipse id="XMLID_19_" class="st2" cx="205.8" cy="182.8" rx="4.8" ry="4.9"/>
<path id="XMLID_18_" class="st1" d="M182.8,175.3c-1.4,1.4-16.6,10-18.4,9.8c-1.7-0.2,22.3,3.9,22.3,3.9L182.8,175.3z"/>
<g id="XMLID_6_">
	<path id="XMLID_20_" class="st1" d="M275.1,208.9c-10.8,0-19.7-9-19.7-19.9s8.9-19.9,19.7-19.9s19.7,9,19.7,19.9
		S286.1,208.9,275.1,208.9z M275.1,176.9c-6.6,0-12,5.5-12,12.1s5.4,12.1,12,12.1s12-5.5,12-12.1S281.7,176.9,275.1,176.9z"/>
	<path id="XMLID_26_" class="st1" d="M257.5,180.2c-4.1,3.1-3.3,4.1-23-2.3c-1,1,0.8,1-1,1c-1.5,0-10.1-2.7-10.1-2.7l2.9,19.1
		c0,0,1.4-0.8,1.7,0c0.4,0.8-0.6,0.6,1.2,1.4c1.7,0.8,43.2,12.3,43.2,12.3l-9.3-8.6L257.5,180.2z"/>
</g>
</svg>
