<?xml version="1.0" encoding="utf-8"?>
<!-- Generator: Adobe Illustrator 25.3.1, SVG Export Plug-In . SVG Version: 6.00 Build 0)  -->
<svg version="1.1" id="图层_1" xmlns="http://www.w3.org/2000/svg" xmlns:xlink="http://www.w3.org/1999/xlink" x="0px" y="0px"
	 viewBox="0 0 299.1 295.7" style="enable-background:new 0 0 299.1 295.7;" xml:space="preserve">
<style type="text/css">
	.st0{fill:#4285F4;}
	.st1{fill:#EE5162;}
</style>
<g transform="translate(45.02412451361867 45.024124513618645) scale(1.83 1.83)">
	<path class="st0" d="M121,23c-0.7,0-1.3-0.3-1.8-0.8L100.8,3.8c-1-1-1-2.6,0-3.7c1-1,2.6-1,3.7,0L123,18.6c1,1,1,2.6,0,3.7
		C122.4,22.8,121.7,23,121,23z"/>
	<path class="st0" d="M102.1,19.5c-0.7,0-1.3-0.3-1.8-0.8L85.9,4.3c-1-1-1-2.6,0-3.7c1-1,2.6-1,3.7,0L104,15.1c1,1,1,2.6,0,3.7
		C103.5,19.3,102.8,19.5,102.1,19.5z"/>
	<path class="st0" d="M62.2,62.7c-0.7,0-1.3-0.3-1.8-0.8L41.9,43.5c-1-1-1-2.6,0-3.7c1-1,2.6-1,3.7,0L64,58.3c1,1,1,2.6,0,3.7
		C63.5,62.4,62.8,62.7,62.2,62.7z"/>
	<path class="st0" d="M62.4,78.3c-0.7,0-1.3-0.3-1.8-0.8L45.4,62.4c-1-1-1-2.6,0-3.7c1-1,2.6-1,3.7,0l15.2,15.2c1,1,1,2.6,0,3.7
		C63.8,78.1,63.1,78.3,62.4,78.3z"/>
	<path class="st0" d="M77.1,62.2c-0.7,0-1.3-0.3-1.8-0.8L60.8,47c-1-1-1-2.6,0-3.7s2.6-1,3.7,0l14.4,14.4c1,1,1,2.6,0,3.7
		C78.4,61.9,77.7,62.2,77.1,62.2z"/>
	<path class="st0" d="M21.6,122.4c-0.7,0-1.3-0.3-1.8-0.8L1.4,103.2c-1-1-1-2.6,0-3.7c1-1,2.6-1,3.7,0L23.5,118c1,1,1,2.6,0,3.7
		C23,122.2,22.3,122.4,21.6,122.4z"/>
	<path class="st0" d="M18.1,103.5c-0.7,0-1.3-0.3-1.8-0.8l-15-15c-1-1-1-2.6,0-3.7c1-1,2.6-1,3.7,0l15,15c1,1,1,2.6,0,3.7
		C19.5,103.3,18.8,103.5,18.1,103.5z"/>
	<path class="st0" d="M-11,96.3L-11,96.3c-2.4,0-4.7-1-6.4-2.7s-2.7-4-2.7-6.4s0.9-4.7,2.7-6.4c13.1-13.1,28.7-12.7,42.2-10.5
		c1.4,0.2,2.4,1.6,2.1,3c-0.2,1.4-1.6,2.4-3,2.1c-12.8-2.1-26.3-2.4-37.7,9c-0.7,0.7-1.2,1.7-1.2,2.8s0.4,2,1.2,2.8
		c0.7,0.7,1.7,1.2,2.8,1.2l0,0c1.1,0,2-0.4,2.8-1.2c9.9-9.9,22.5-8.5,35.6-6c1.4,0.3,2.3,1.6,2,3s-1.6,2.3-3,2
		c-12.6-2.4-22.8-3.6-31,4.6C-6.3,95.3-8.6,96.3-11,96.3z"/>
	<path class="st0" d="M53.1,92.9c-4.4,0-8.7-0.5-12.9-1.2c-1.4-0.2-2.4-1.6-2.1-3c0.2-1.4,1.6-2.4,3-2.1c12.8,2.1,26.3,2.4,37.7-9
		c7.6-7.6,10.8-16.8,10-29c-0.1-1.4,1-2.6,2.4-2.7c1.5-0.1,2.6,1,2.7,2.4c0.8,13.8-2.9,24.3-11.5,32.9
		C73.3,90.3,63.1,92.9,53.1,92.9z"/>
	<path class="st0" d="M52.9,79.8C48,79.8,42.8,79,37.5,78c-1.4-0.3-2.3-1.6-2-3s1.6-2.3,3-2c12.6,2.4,22.8,3.6,31-4.6
		c5.2-5.2,7-11.5,6.1-21.1c-0.1-1.4,0.9-2.7,2.3-2.8s2.7,0.9,2.8,2.3c0.7,7.5,0.5,17.2-7.6,25.2C67.2,77.9,60.3,79.8,52.9,79.8z"/>
	<path class="st0" d="M102.8,43.2c-4.4,0-8.7-0.5-12.9-1.2c-1.4-0.2-2.4-1.6-2.1-3c0.2-1.4,1.5-2.4,3-2.1c12.8,2.1,26.3,2.4,37.7-9
		c1.5-1.5,1.5-4,0-5.6c-1.5-1.5-4-1.5-5.6,0c-9.9,9.9-22.5,8.5-35.6,6c-1.4-0.3-2.3-1.6-2-3s1.6-2.3,3-2c12.6,2.4,22.8,3.6,31-4.6
		c3.6-3.6,9.3-3.6,12.9,0c3.6,3.6,3.6,9.3,0,12.9C123,40.6,112.8,43.2,102.8,43.2z"/>
	<path class="st0" d="M50.1,26c-1.1,0-2.2-0.8-2.5-1.9c-0.4-1.4,0.4-2.8,1.8-3.2c8.9-2.4,18-1.5,25-0.4c1.4,0.2,2.4,1.6,2.1,3
		c-0.2,1.4-1.5,2.4-3,2.1c-6.4-1-14.8-1.9-22.8,0.2C50.6,25.9,50.3,26,50.1,26z"/>
	<path class="st0" d="M26.3,133.6c-2.3,0-4.7-0.9-6.4-2.7c-3.6-3.6-3.6-9.3,0-12.9c9-9,6.7-20.6,3.7-35.2c-3.2-16-7.2-35.9,8.7-51.7
		c1-1,2.6-1,3.7,0c1,1,1,2.6,0,3.7c-14,13.8-10.7,30.6-7.4,46.9c3,14.9,5.8,29-5.1,39.9c-1.5,1.5-1.5,4,0,5.6c1.5,1.5,4,1.5,5.6,0
		c13.9-13.9,10.6-30.8,7.3-47.1c-3-14.9-5.8-29,5.1-39.9c9.9-9.9,22.5-8.5,35.6-6c1.4,0.3,2.3,1.6,2,3s-1.6,2.3-3,2
		c-12.6-2.4-22.8-3.6-31,4.6c-9,9-6.7,20.6-3.7,35.2c3.2,16,7.2,35.9-8.7,51.7C30.9,132.7,28.6,133.6,26.3,133.6z"/>
	<path class="st1" d="M35,21.8c-1.2,0-2.4-0.7-3.1-1.9L19.8-3.2C18.9-5,19.6-7,21.3-7.9C23-8.8,25-8.2,26-6.4l12.1,23.2
		c0.9,1.7,0.3,3.7-1.5,4.7C36.2,21.7,35.7,21.8,35,21.8z"/>
	<path class="st1" d="M28.2,27.4c-0.4,0-1-0.1-1.4-0.3L0.6,16c-1.8-0.8-2.6-2.9-1.9-4.6s2.9-2.6,4.6-1.9l26.2,11.1
		c1.8,0.8,2.6,2.9,1.9,4.6C30.9,26.6,29.5,27.4,28.2,27.4z"/>
	<path class="st1" d="M44.9,19.4c-0.2,0-0.5,0-0.6-0.1c-1.7-0.4-2.8-2.1-2.4-3.8l5.2-24.9c0.4-1.7,2.1-2.8,3.8-2.4
		c1.7,0.4,2.8,2.1,2.4,3.8l-5.2,24.9C47.7,18.3,46.4,19.4,44.9,19.4z"/>
	<path class="st0" d="M91.4,51c-1.4,0-2.5-1.1-2.6-2.4c-0.4-6.1-1.6-12.2-2.8-18.1c-3-14.9-5.8-29,5.1-39.9c0.7-0.7,1.2-1.7,1.2-2.8
		s-0.4-2-1.2-2.8c-1.5-1.5-4.1-1.5-5.6,0C71.7-1.1,75,15.7,78.3,32c1,5.2,2,10,2.5,14.7c0.1,1.4-0.9,2.7-2.3,2.8s-2.7-0.9-2.8-2.3
		c-0.4-4.4-1.4-9.1-2.4-14.1c-3.2-16-7.2-35.9,8.7-51.8c1.7-1.7,4-2.7,6.4-2.7s4.7,0.9,6.4,2.7c1.7,1.7,2.7,4,2.7,6.4
		s-1,4.7-2.7,6.4c-9,9-6.7,20.6-3.7,35.3c1.2,6.1,2.5,12.4,2.8,18.8c0.1,1.4-1,2.6-2.4,2.7C91.5,51,91.4,51,91.4,51z"/>
</g>
</svg>
